<svg xmlns="http://www.w3.org/2000/svg" width="1400" height="220" viewBox="0 0 1400 220">
  <defs>
    <linearGradient id="goldPlat" x1="0" y1="0" x2="1" y2="1">
      <stop offset="0" stop-color="#D7DEE6"/>
      <stop offset="0.48" stop-color="#C8A24A"/>
      <stop offset="1" stop-color="#D7DEE6"/>
    </linearGradient>

    <filter id="softGlow" x="-50%" y="-50%" width="200%" height="200%">
      <feGaussianBlur stdDeviation="3.5" result="b"/>
      <feColorMatrix in="b" type="matrix" values="
        1 0 0 0 0
        0 0.86 0 0 0
        0 0 0.25 0 0
        0 0 0 0.55 0" result="g"/>
      <feMerge>
        <feMergeNode in="g"/>
        <feMergeNode in="SourceGraphic"/>
      </feMerge>
    </filter>
  </defs>

  <g transform="translate(32 24)">
    <rect x="0" y="0" width="172" height="172" rx="32" fill="#0E1116" stroke="rgba(255,255,255,0.10)" />
    <path d="M86 32c-30 0-55 21-55 48 0 18 10 32 27 40 7 4 17 7 28 7 13 0 24-3 36-10"
          fill="none" stroke="url(#goldPlat)" stroke-width="10.5" stroke-linecap="round" filter="url(#softGlow)"/>
    <path d="M120 60c-5-7-14-11-25-11-16 0-28 9-28 20 0 9 8 14 20 17l12 3c13 3 21 9 21 20 0 14-16 24-35 24-14 0-25-4-32-12"
          fill="none" stroke="url(#goldPlat)" stroke-width="10.5" stroke-linecap="round" filter="url(#softGlow)"/>
  </g>

  <g transform="translate(230 68)">
    <text x="0" y="56" font-family="Arial" font-weight="800" font-size="64" fill="url(#goldPlat)" filter="url(#softGlow)">
      Sovereign Compliance Systems
    </text>
    <text x="2" y="106" font-family="Arial" font-weight="600" font-size="16" fill="rgba(215,222,230,0.70)" letter-spacing="5">
      AI EVERYWHERE  •  AUTOMATION EVERYWHERE
    </text>
  </g>
</svg>