<svg xmlns="http://www.w3.org/2000/svg" width="240" height="240" viewBox="0 0 240 240">
  <defs>
    <linearGradient id="g" x1="0" y1="0" x2="1" y2="1">
      <stop offset="0" stop-color="#D7DEE6"/>
      <stop offset="0.55" stop-color="#C8A24A"/>
      <stop offset="1" stop-color="#D7DEE6"/>
    </linearGradient>
    <filter id="glow" x="-50%" y="-50%" width="200%" height="200%">
      <feGaussianBlur stdDeviation="6" result="b"/>
      <feColorMatrix in="b" type="matrix" values="
        1 0 0 0 0
        0 0.86 0 0 0
        0 0 0.25 0 0
        0 0 0 0.55 0" result="g2"/>
      <feMerge>
        <feMergeNode in="g2"/>
        <feMergeNode in="SourceGraphic"/>
      </feMerge>
    </filter>
  </defs>

  <rect width="240" height="240" rx="44" fill="#0E1116" />
  <rect x="14" y="14" width="212" height="212" rx="36" fill="none" stroke="rgba(255,255,255,0.08)" />

  <path d="M120 52c-42 0-76 30-76 68 0 24 14 44 36 56 10 6 23 10 40 10 18 0 35-5 50-14" fill="none" stroke="url(#g)" stroke-width="14" stroke-linecap="round" filter="url(#glow)"/>
  <path d="M170 92c-7-10-19-16-36-16-22 0-40 12-40 28 0 13 11 20 28 24l18 4c18 4 30 12 30 28 0 20-22 34-50 34-20 0-36-6-46-18" fill="none" stroke="url(#g)" stroke-width="14" stroke-linecap="round" filter="url(#glow)"/>

  <text x="120" y="214" text-anchor="middle" font-family="Arial" font-size="14" fill="rgba(215,222,230,0.72)">Sovereign</text>
</svg>
